<?xml version="1.0" standalone="no"?>
<!DOCTYPE svg PUBLIC "-//W3C//DTD SVG 20010904//EN"
 "http://www.w3.org/TR/2001/REC-SVG-20010904/DTD/svg10.dtd">
<svg version="1.0" xmlns="http://www.w3.org/2000/svg"
 width="512.000000pt" height="512.000000pt" viewBox="0 0 512.000000 512.000000"
 preserveAspectRatio="xMidYMid meet">
<metadata>
Created by potrace 1.11, written by Peter Selinger 2001-2013
</metadata>
<g transform="translate(0.000000,512.000000) scale(0.100000,-0.100000)"
fill="#000000" stroke="none">
<path d="M2435 4234 c-186 -17 -270 -29 -375 -54 -66 -16 -235 -64 -250 -71
-8 -4 -51 -22 -95 -40 -120 -47 -287 -136 -355 -188 -19 -15 -48 -35 -65 -46
-16 -10 -35 -23 -41 -29 -6 -6 -33 -29 -60 -51 -84 -68 -236 -233 -307 -333
-63 -90 -142 -239 -189 -357 -59 -148 -82 -289 -83 -510 0 -254 31 -400 132
-620 31 -66 79 -153 107 -194 28 -40 56 -83 63 -95 14 -25 160 -188 202 -226
159 -143 326 -255 503 -339 47 -23 89 -41 93 -41 4 0 21 -6 38 -14 152 -70
400 -124 672 -146 130 -11 172 -10 310 4 225 23 342 48 535 113 98 32 348 145
360 162 3 4 28 20 55 35 127 72 296 215 417 353 77 87 221 296 234 337 3 11
19 50 36 85 35 78 81 215 99 296 18 82 18 498 0 580 -17 77 -67 228 -91 275
-11 21 -28 61 -39 89 -50 132 -258 396 -421 536 -88 75 -257 195 -277 195 -6
0 -13 4 -15 9 -4 11 -144 81 -255 127 -162 67 -354 117 -554 143 -86 12 -324
21 -384 15z m-244 -211 c13 -21 48 -69 79 -108 61 -77 90 -119 90 -133 0 -9
-120 -114 -240 -212 -30 -24 -57 -47 -60 -51 -3 -3 -34 -30 -70 -60 -36 -29
-76 -63 -90 -75 -63 -54 -195 -165 -271 -229 -46 -38 -104 -88 -129 -110 -25
-23 -67 -58 -95 -80 -27 -22 -57 -47 -65 -56 -8 -9 -37 -34 -65 -56 -27 -21
-63 -51 -80 -65 -178 -153 -264 -223 -268 -217 -2 2 -30 38 -62 79 -33 41 -62
77 -66 80 -3 3 -14 19 -23 35 -9 17 -26 43 -38 58 l-23 28 42 37 c23 20 90 78
149 127 59 50 157 133 218 185 61 53 133 113 161 135 27 22 66 55 85 74 19 18
54 46 77 62 23 16 43 32 45 37 1 4 38 37 81 72 88 73 145 120 273 230 48 41
114 97 146 123 32 27 78 66 101 88 23 21 50 39 59 39 9 0 27 -17 39 -37z m353
-373 c146 -159 221 -241 251 -278 l28 -33 -24 -26 c-13 -15 -68 -72 -122 -127
l-99 -100 -118 124 c-66 69 -119 129 -120 133 0 5 -31 39 -70 78 -38 38 -70
77 -70 87 0 18 227 255 239 250 5 -2 52 -50 105 -108z m-430 -410 c53 -58 124
-133 158 -168 34 -34 69 -73 77 -86 9 -13 77 -87 151 -166 74 -78 139 -150
144 -161 7 -15 -11 -39 -104 -136 -62 -65 -117 -119 -124 -121 -11 -2 -45 33
-356 369 -246 266 -290 317 -290 335 0 21 220 246 236 242 7 -2 56 -50 108
-108z m1024 -576 c37 -44 152 -267 181 -349 31 -88 61 -280 61 -387 0 -121
-37 -302 -79 -388 -100 -206 -286 -359 -501 -414 -92 -24 -256 -32 -343 -16
-89 15 -251 61 -255 72 -2 4 -11 8 -21 8 -28 0 -217 112 -300 178 -75 59 -251
235 -251 250 0 12 14 26 75 76 33 27 65 54 70 60 6 6 33 30 61 54 51 41 74 52
74 32 0 -19 166 -173 234 -217 160 -104 301 -153 439 -153 123 0 241 41 314
108 31 29 92 118 107 157 45 115 46 252 4 400 -19 67 -99 237 -134 288 -19 26
-34 49 -34 51 0 2 44 41 98 87 53 45 110 96 126 111 15 15 32 28 36 28 5 0 22
-16 38 -36z"/>
</g>
</svg>
